<svg width="147" height="143" viewBox="0 0 147 143" fill="none" xmlns="http://www.w3.org/2000/svg">
<g filter="url(#filter0_d)">
<path d="M75.8129 0C17.1334 0.00131165 26.7912 45.2007 47.7155 66.3069C81.1945 89.6034 56.4204 107.878 95.54 66.3069C133.204 26.2823 109.888 -0.000761652 75.8129 0Z" fill="#790000"/>
<path d="M75.8129 0C17.1334 0.00131165 26.7912 45.2007 47.7155 66.3069C81.1945 89.6034 56.4204 107.878 95.54 66.3069C133.204 26.2823 109.888 -0.000761652 75.8129 0Z" fill="url(#paint0_linear)"/>
</g>
<g filter="url(#filter1_d)">
<path d="M143 71.7535C142.999 13.1226 97.7619 22.7723 76.6382 43.6794C53.3225 77.1307 35.0324 52.3771 76.6382 91.4643C116.696 129.097 143.001 105.801 143 71.7535Z" fill="#790000"/>
<path d="M143 71.7535C142.999 13.1226 97.7619 22.7723 76.6382 43.6794C53.3225 77.1307 35.0324 52.3771 76.6382 91.4643C116.696 129.097 143.001 105.801 143 71.7535Z" fill="url(#paint1_linear)"/>
</g>
<g filter="url(#filter2_d)">
<path d="M4 70.0692C4.00131 128.7 49.2381 119.05 70.3618 98.1433C93.6775 64.692 111.968 89.4456 70.3618 50.3585C30.3041 12.7257 3.99923 36.0222 4 70.0692Z" fill="#790000"/>
<path d="M4 70.0692C4.00131 128.7 49.2381 119.05 70.3618 98.1433C93.6775 64.692 111.968 89.4456 70.3618 50.3585C30.3041 12.7257 3.99923 36.0222 4 70.0692Z" fill="url(#paint2_linear)"/>
</g>
<g filter="url(#filter3_d)">
<path d="M75.8456 135C20.2898 134.999 29.4334 92.3198 49.244 72.3905C80.9407 50.3931 57.4855 33.1371 94.5225 72.3905C130.181 110.183 108.107 135.001 75.8456 135Z" fill="#790000"/>
<path d="M75.8456 135C20.2898 134.999 29.4334 92.3198 49.244 72.3905C80.9407 50.3931 57.4855 33.1371 94.5225 72.3905C130.181 110.183 108.107 135.001 75.8456 135Z" fill="url(#paint3_linear)"/>
</g>
<ellipse cx="72.9136" cy="67.8938" rx="23.9136" ry="23.8938" fill="black"/>
<defs>
<filter id="filter0_d" x="27.5005" y="0" width="91.3519" height="99.0974" filterUnits="userSpaceOnUse" color-interpolation-filters="sRGB">
<feFlood flood-opacity="0" result="BackgroundImageFix"/>
<feColorMatrix in="SourceAlpha" type="matrix" values="0 0 0 0 0 0 0 0 0 0 0 0 0 0 0 0 0 0 127 0"/>
<feOffset dy="4"/>
<feGaussianBlur stdDeviation="2"/>
<feColorMatrix type="matrix" values="0 0 0 0 0 0 0 0 0 0 0 0 0 0 0 0 0 0 0.25 0"/>
<feBlend mode="normal" in2="BackgroundImageFix" result="effect1_dropShadow"/>
<feBlend mode="normal" in="SourceGraphic" in2="effect1_dropShadow" result="shape"/>
</filter>
<filter id="filter1_d" x="47.8271" y="27.4778" width="99.1728" height="91.283" filterUnits="userSpaceOnUse" color-interpolation-filters="sRGB">
<feFlood flood-opacity="0" result="BackgroundImageFix"/>
<feColorMatrix in="SourceAlpha" type="matrix" values="0 0 0 0 0 0 0 0 0 0 0 0 0 0 0 0 0 0 127 0"/>
<feOffset dy="4"/>
<feGaussianBlur stdDeviation="2"/>
<feColorMatrix type="matrix" values="0 0 0 0 0 0 0 0 0 0 0 0 0 0 0 0 0 0 0.25 0"/>
<feBlend mode="normal" in2="BackgroundImageFix" result="effect1_dropShadow"/>
<feBlend mode="normal" in="SourceGraphic" in2="effect1_dropShadow" result="shape"/>
</filter>
<filter id="filter2_d" x="0" y="31.062" width="99.1728" height="91.283" filterUnits="userSpaceOnUse" color-interpolation-filters="sRGB">
<feFlood flood-opacity="0" result="BackgroundImageFix"/>
<feColorMatrix in="SourceAlpha" type="matrix" values="0 0 0 0 0 0 0 0 0 0 0 0 0 0 0 0 0 0 127 0"/>
<feOffset dy="4"/>
<feGaussianBlur stdDeviation="2"/>
<feColorMatrix type="matrix" values="0 0 0 0 0 0 0 0 0 0 0 0 0 0 0 0 0 0 0.25 0"/>
<feBlend mode="normal" in2="BackgroundImageFix" result="effect1_dropShadow"/>
<feBlend mode="normal" in="SourceGraphic" in2="effect1_dropShadow" result="shape"/>
</filter>
<filter id="filter3_d" x="29.8921" y="48.9824" width="86.9148" height="94.0177" filterUnits="userSpaceOnUse" color-interpolation-filters="sRGB">
<feFlood flood-opacity="0" result="BackgroundImageFix"/>
<feColorMatrix in="SourceAlpha" type="matrix" values="0 0 0 0 0 0 0 0 0 0 0 0 0 0 0 0 0 0 127 0"/>
<feOffset dy="4"/>
<feGaussianBlur stdDeviation="2"/>
<feColorMatrix type="matrix" values="0 0 0 0 0 0 0 0 0 0 0 0 0 0 0 0 0 0 0.25 0"/>
<feBlend mode="normal" in2="BackgroundImageFix" result="effect1_dropShadow"/>
<feBlend mode="normal" in="SourceGraphic" in2="effect1_dropShadow" result="shape"/>
</filter>
<linearGradient id="paint0_linear" x1="73.1764" y1="0" x2="73.1764" y2="91.0974" gradientUnits="userSpaceOnUse">
<stop stop-color="#F30101"/>
<stop offset="1" stop-color="white" stop-opacity="0"/>
</linearGradient>
<linearGradient id="paint1_linear" x1="143" y1="69.1193" x2="51.8272" y2="69.1193" gradientUnits="userSpaceOnUse">
<stop stop-color="#F30101"/>
<stop offset="1" stop-color="white" stop-opacity="0"/>
</linearGradient>
<linearGradient id="paint2_linear" x1="4" y1="72.7035" x2="95.1728" y2="72.7035" gradientUnits="userSpaceOnUse">
<stop stop-color="#F30101"/>
<stop offset="1" stop-color="white" stop-opacity="0"/>
</linearGradient>
<linearGradient id="paint3_linear" x1="73.3495" y1="135" x2="73.3495" y2="48.9823" gradientUnits="userSpaceOnUse">
<stop stop-color="#F30101"/>
<stop offset="1" stop-color="white" stop-opacity="0"/>
</linearGradient>
</defs>
</svg>
